<svg width="18" height="18" viewBox="0 0 18 18" fill="none" xmlns="http://www.w3.org/2000/svg">
<path d="M14.6347 17.6051H3.28379C1.71525 17.6051 0.433807 16.3236 0.433807 14.7551V3.40418C0.433807 1.83564 1.71525 0.554199 3.28379 0.554199H14.6347C16.2032 0.554199 17.4847 1.83564 17.4847 3.40418V14.7551C17.4847 16.3306 16.2102 17.6051 14.6347 17.6051Z" fill="white"/>
<path d="M8.96277 13.4597C7.79337 13.4597 6.69399 13.0045 5.86771 12.1782C5.04142 11.352 4.58627 10.2526 4.58627 9.08317C4.58627 7.91377 5.04142 6.81439 5.86771 5.98811C6.69399 5.16182 7.79337 4.70667 8.96277 4.70667C10.1322 4.70667 11.2316 5.16182 12.0578 5.98811C12.8841 6.81439 13.3393 7.91377 13.3393 9.08317C13.3393 10.2526 12.8841 11.352 12.0578 12.1782C11.2246 13.0045 10.1322 13.4597 8.96277 13.4597ZM8.96277 5.63799C7.06512 5.63799 5.51759 7.17852 5.51759 9.08317C5.51759 10.9808 7.05812 12.5284 8.96277 12.5284C10.8604 12.5284 12.408 10.9878 12.408 9.08317C12.401 7.18552 10.8604 5.63799 8.96277 5.63799Z" fill="#343434"/>
<path d="M14.1923 4.56282C14.6564 4.56282 15.0326 4.1866 15.0326 3.72251C15.0326 3.25842 14.6564 2.8822 14.1923 2.8822C13.7282 2.8822 13.352 3.25842 13.352 3.72251C13.352 4.1866 13.7282 4.56282 14.1923 4.56282Z" fill="#343434"/>
</svg>
