<svg width="21" height="20" viewBox="0 0 21 20" fill="none" xmlns="http://www.w3.org/2000/svg">
<path d="M4.68618 6.54144H0.529491V19.7969H4.68618V6.54144Z" fill="white"/>
<path d="M15.9303 6.25405C15.777 6.2349 15.6142 6.22532 15.4514 6.21574C13.124 6.11997 11.8119 7.49914 11.3522 8.09296C11.2277 8.25577 11.1702 8.35155 11.1702 8.35155V6.57969H7.19549V19.8351H11.1702H11.3522C11.3522 18.4847 11.3522 17.1438 11.3522 15.7934C11.3522 15.0655 11.3522 14.3376 11.3522 13.6097C11.3522 12.7094 11.2851 11.7516 11.7353 10.9279C12.1184 10.2383 12.808 9.89355 13.5838 9.89355C15.8824 9.89355 15.9303 11.9719 15.9303 12.1634C15.9303 12.173 15.9303 12.1826 15.9303 12.1826V19.8926H20.087V11.244C20.087 8.28451 18.5833 6.54138 15.9303 6.25405Z" fill="white"/>
<path d="M2.60779 4.82712C3.94076 4.82712 5.02136 3.74653 5.02136 2.41356C5.02136 1.08059 3.94076 0 2.60779 0C1.27482 0 0.194237 1.08059 0.194237 2.41356C0.194237 3.74653 1.27482 4.82712 2.60779 4.82712Z" fill="white"/>
</svg>
