<svg width="18" height="18" viewBox="0 0 18 18" fill="none" xmlns="http://www.w3.org/2000/svg"><path d="M14.635 17.605H3.284a2.857 2.857 0 01-2.85-2.85V3.405a2.857 2.857 0 012.85-2.85h11.35a2.857 2.857 0 012.85 2.85v11.35a2.848 2.848 0 01-2.85 2.85z" fill="#fff"/><path d="M8.963 13.46a4.349 4.349 0 01-3.095-1.282 4.348 4.348 0 01-1.282-3.095c0-1.17.455-2.269 1.282-3.095a4.348 4.348 0 013.095-1.281c1.17 0 2.269.455 3.095 1.281a4.349 4.349 0 011.281 3.095c0 1.17-.455 2.269-1.281 3.095a4.36 4.36 0 01-3.095 1.282zm0-7.822a3.447 3.447 0 00-3.445 3.445 3.447 3.447 0 003.445 3.445 3.447 3.447 0 003.445-3.445 3.456 3.456 0 00-3.445-3.445zm5.229-1.075a.84.84 0 100-1.68.84.84 0 000 1.68z" fill="#343434"/></svg>